<svg width="1440" height="1024" viewBox="0 0 1440 1024" fill="none" xmlns="http://www.w3.org/2000/svg">
<g clip-path="url(#clip0_263_12152)">
<rect width="1440" height="1024" fill="#101414"/>
<path opacity="0.2" d="M15.6386 104.072C15.4715 104.475 0.924372 184.206 1.0003 184.321C1.06104 184.379 17.5519 184.494 37.6719 184.552L74.2373 184.667L52.3254 301.182C40.2685 365.266 30.4287 417.716 30.4439 417.755C30.4743 417.774 47.6029 417.832 68.5125 417.851L106.551 417.908L106.672 417.429C106.733 417.179 116.801 364.863 129.04 301.201C141.279 237.52 151.331 185.281 151.377 185.089C151.453 184.782 153.229 184.763 185.847 184.763C204.752 184.763 220.225 184.82 220.225 184.878C220.225 184.955 206.999 255.01 190.842 340.558C174.686 426.106 161.46 496.18 161.46 496.296C161.46 496.526 238.143 496.814 238.326 496.584C238.402 496.488 242.76 473.104 248.029 444.594C253.283 416.104 257.626 392.624 257.671 392.451C257.747 392.144 259.357 392.125 282.074 392.048C298.458 391.991 307.022 391.895 308.298 391.76C316.832 390.781 321.706 389.879 327.735 388.151C344.438 383.371 359.669 373.925 372.53 360.371C375.294 357.453 381.353 349.831 383.615 346.414C388.641 338.869 392.802 330.805 396.34 321.84C399.028 315.024 400.562 310.224 402.308 303.217C405.223 291.564 407 277.011 407 264.916C407 246.659 403.31 230.455 396.249 217.592C392.954 211.602 388.231 205.42 383.539 200.966C374.216 192.077 361.749 186.088 347.08 183.438C343.147 182.709 338.258 182.152 333.885 181.883C331.895 181.768 317.758 181.691 298.959 181.672C281.588 181.653 257.489 181.576 245.417 181.518L223.46 181.403L230.718 142.91C234.712 121.734 237.961 104.398 237.931 104.379C237.916 104.36 206.377 104.283 167.837 104.225C129.298 104.168 79.2938 104.091 56.729 104.033C34.1642 103.976 15.6841 103.995 15.6386 104.072ZM137.391 107.489C190.827 107.547 234.59 107.643 234.621 107.681C234.651 107.72 231.568 124.288 227.757 144.504C223.946 164.7 220.833 181.307 220.833 181.403C220.833 181.48 204.782 181.499 185.163 181.442C157.36 181.346 149.463 181.384 149.418 181.557C149.388 181.691 139.29 234.16 126.975 298.168L104.592 414.568H69.1047H33.6327L33.7542 413.934C33.9061 413.282 77.2287 182.958 77.3957 181.96L77.502 181.345L40.8152 181.211L4.11321 181.077L4.2195 180.558C4.37135 179.771 17.3545 109.14 17.5215 108.104L17.6885 107.182L28.9406 107.297C35.136 107.355 83.9404 107.432 137.391 107.489ZM332.594 185.147C350.937 185.991 365.393 190.618 376.979 199.334C383.615 204.326 389.583 211.295 393.865 219.051C400.136 230.359 403.462 243.184 404.282 259.253C404.768 268.794 403.766 282.291 401.746 293.426C398.375 311.952 391.557 329.212 381.702 344.206C379.515 347.527 373.608 354.976 370.86 357.875C360.413 368.856 347.9 377.4 335.13 382.295C326.702 385.521 318.912 387.306 307.918 388.496C306.612 388.631 297.456 388.727 280.813 388.784L255.667 388.861L246.04 440.985C240.74 469.648 236.382 493.166 236.336 493.243C236.276 493.32 220.134 493.339 200.439 493.32C167.139 493.243 164.648 493.224 164.709 492.936C164.755 492.744 177.844 423.457 193.803 338.926C209.763 254.396 222.852 185.147 222.883 185.032C222.943 184.782 326.626 184.878 332.594 185.147Z" fill="#363A3A" stroke="black" stroke-width="0.1"/>
<path opacity="0.2" d="M435.639 104.072C435.472 104.475 420.924 184.206 421 184.321C421.061 184.379 437.552 184.494 457.672 184.552L494.237 184.667L472.325 301.182C460.269 365.266 450.429 417.716 450.444 417.755C450.474 417.774 467.603 417.832 488.513 417.851L526.551 417.908L526.672 417.429C526.733 417.179 536.801 364.863 549.04 301.201C561.279 237.52 571.331 185.281 571.377 185.089C571.453 184.782 573.229 184.763 605.847 184.763C624.752 184.763 640.225 184.82 640.225 184.878C640.225 184.955 626.999 255.01 610.842 340.558C594.686 426.106 581.46 496.18 581.46 496.296C581.46 496.526 658.143 496.814 658.326 496.584C658.402 496.488 662.76 473.104 668.029 444.594C673.283 416.104 677.626 392.624 677.671 392.451C677.747 392.144 679.357 392.125 702.074 392.048C718.458 391.991 727.022 391.895 728.298 391.76C736.832 390.781 741.706 389.879 747.735 388.151C764.438 383.371 779.669 373.925 792.53 360.371C795.294 357.453 801.353 349.831 803.615 346.414C808.641 338.869 812.802 330.805 816.34 321.84C819.028 315.024 820.562 310.224 822.308 303.217C825.223 291.564 827 277.011 827 264.916C827 246.659 823.31 230.455 816.249 217.592C812.954 211.602 808.231 205.42 803.539 200.966C794.216 192.077 781.749 186.088 767.08 183.438C763.147 182.709 758.258 182.152 753.885 181.883C751.895 181.768 737.758 181.691 718.959 181.672C701.588 181.653 677.489 181.576 665.417 181.518L643.46 181.403L650.718 142.91C654.712 121.734 657.961 104.398 657.931 104.379C657.916 104.36 626.377 104.283 587.837 104.225C549.298 104.168 499.294 104.091 476.729 104.033C454.164 103.976 435.684 103.995 435.639 104.072ZM557.391 107.489C610.827 107.547 654.59 107.643 654.621 107.681C654.651 107.72 651.568 124.288 647.757 144.504C643.946 164.7 640.833 181.307 640.833 181.403C640.833 181.48 624.782 181.499 605.163 181.442C577.36 181.346 569.463 181.384 569.418 181.557C569.388 181.691 559.29 234.16 546.975 298.168L524.592 414.568H489.105H453.633L453.754 413.934C453.906 413.282 497.229 182.958 497.396 181.96L497.502 181.345L460.815 181.211L424.113 181.077L424.22 180.558C424.371 179.771 437.354 109.14 437.522 108.104L437.689 107.182L448.941 107.297C455.136 107.355 503.94 107.432 557.391 107.489ZM752.594 185.147C770.937 185.991 785.393 190.618 796.979 199.334C803.615 204.326 809.583 211.295 813.865 219.051C820.136 230.359 823.462 243.184 824.282 259.253C824.768 268.794 823.766 282.291 821.746 293.426C818.375 311.952 811.557 329.212 801.702 344.206C799.515 347.527 793.608 354.976 790.86 357.875C780.413 368.856 767.9 377.4 755.13 382.295C746.702 385.521 738.912 387.306 727.918 388.496C726.612 388.631 717.456 388.727 700.813 388.784L675.667 388.861L666.04 440.985C660.74 469.648 656.382 493.166 656.336 493.243C656.276 493.32 640.134 493.339 620.439 493.32C587.139 493.243 584.648 493.224 584.709 492.936C584.755 492.744 597.844 423.457 613.803 338.926C629.763 254.396 642.852 185.147 642.883 185.032C642.943 184.782 746.626 184.878 752.594 185.147Z" fill="#363A3A" stroke="black" stroke-width="0.1"/>
<path opacity="0.2" d="M855.639 104.072C855.472 104.475 840.924 184.206 841 184.321C841.061 184.379 857.552 184.494 877.672 184.552L914.237 184.667L892.325 301.182C880.269 365.266 870.429 417.716 870.444 417.755C870.474 417.774 887.603 417.832 908.513 417.851L946.551 417.908L946.672 417.429C946.733 417.179 956.801 364.863 969.04 301.201C981.279 237.52 991.331 185.281 991.377 185.089C991.453 184.782 993.229 184.763 1025.85 184.763C1044.75 184.763 1060.23 184.82 1060.23 184.878C1060.23 184.955 1047 255.01 1030.84 340.558C1014.69 426.106 1001.46 496.18 1001.46 496.296C1001.46 496.526 1078.14 496.814 1078.33 496.584C1078.4 496.488 1082.76 473.104 1088.03 444.594C1093.28 416.104 1097.63 392.624 1097.67 392.451C1097.75 392.144 1099.36 392.125 1122.07 392.048C1138.46 391.991 1147.02 391.895 1148.3 391.76C1156.83 390.781 1161.71 389.879 1167.73 388.151C1184.44 383.371 1199.67 373.925 1212.53 360.371C1215.29 357.453 1221.35 349.831 1223.62 346.414C1228.64 338.869 1232.8 330.805 1236.34 321.84C1239.03 315.024 1240.56 310.224 1242.31 303.217C1245.22 291.564 1247 277.011 1247 264.916C1247 246.659 1243.31 230.455 1236.25 217.592C1232.95 211.602 1228.23 205.42 1223.54 200.966C1214.22 192.077 1201.75 186.088 1187.08 183.438C1183.15 182.709 1178.26 182.152 1173.88 181.883C1171.9 181.768 1157.76 181.691 1138.96 181.672C1121.59 181.653 1097.49 181.576 1085.42 181.518L1063.46 181.403L1070.72 142.91C1074.71 121.734 1077.96 104.398 1077.93 104.379C1077.92 104.36 1046.38 104.283 1007.84 104.225C969.298 104.168 919.294 104.091 896.729 104.033C874.164 103.976 855.684 103.995 855.639 104.072ZM977.391 107.489C1030.83 107.547 1074.59 107.643 1074.62 107.681C1074.65 107.72 1071.57 124.288 1067.76 144.504C1063.95 164.7 1060.83 181.307 1060.83 181.403C1060.83 181.48 1044.78 181.499 1025.16 181.442C997.36 181.346 989.463 181.384 989.418 181.557C989.388 181.691 979.29 234.16 966.975 298.168L944.592 414.568H909.105H873.633L873.754 413.934C873.906 413.282 917.229 182.958 917.396 181.96L917.502 181.345L880.815 181.211L844.113 181.077L844.22 180.558C844.371 179.771 857.354 109.14 857.522 108.104L857.689 107.182L868.941 107.297C875.136 107.355 923.94 107.432 977.391 107.489ZM1172.59 185.147C1190.94 185.991 1205.39 190.618 1216.98 199.334C1223.62 204.326 1229.58 211.295 1233.87 219.051C1240.14 230.359 1243.46 243.184 1244.28 259.253C1244.77 268.794 1243.77 282.291 1241.75 293.426C1238.37 311.952 1231.56 329.212 1221.7 344.206C1219.52 347.527 1213.61 354.976 1210.86 357.875C1200.41 368.856 1187.9 377.4 1175.13 382.295C1166.7 385.521 1158.91 387.306 1147.92 388.496C1146.61 388.631 1137.46 388.727 1120.81 388.784L1095.67 388.861L1086.04 440.985C1080.74 469.648 1076.38 493.166 1076.34 493.243C1076.28 493.32 1060.13 493.339 1040.44 493.32C1007.14 493.243 1004.65 493.224 1004.71 492.936C1004.75 492.744 1017.84 423.457 1033.8 338.926C1049.76 254.396 1062.85 185.147 1062.88 185.032C1062.94 184.782 1166.63 184.878 1172.59 185.147Z" fill="#363A3A" stroke="black" stroke-width="0.1"/>
<path opacity="0.2" d="M1275.64 104.072C1275.47 104.475 1260.92 184.206 1261 184.321C1261.06 184.379 1277.55 184.494 1297.67 184.552L1334.24 184.667L1312.33 301.182C1300.27 365.266 1290.43 417.716 1290.44 417.755C1290.47 417.774 1307.6 417.832 1328.51 417.851L1366.55 417.908L1366.67 417.429C1366.73 417.179 1376.8 364.863 1389.04 301.201C1401.28 237.52 1411.33 185.281 1411.38 185.089C1411.45 184.782 1413.23 184.763 1445.85 184.763C1464.75 184.763 1480.23 184.82 1480.23 184.878C1480.23 184.955 1467 255.01 1450.84 340.558C1434.69 426.106 1421.46 496.18 1421.46 496.296C1421.46 496.526 1498.14 496.814 1498.33 496.584C1498.4 496.488 1502.76 473.104 1508.03 444.594C1513.28 416.104 1517.63 392.624 1517.67 392.451C1517.75 392.144 1519.36 392.125 1542.07 392.048C1558.46 391.991 1567.02 391.895 1568.3 391.76C1576.83 390.781 1581.71 389.879 1587.73 388.151C1604.44 383.371 1619.67 373.925 1632.53 360.371C1635.29 357.453 1641.35 349.831 1643.62 346.414C1648.64 338.869 1652.8 330.805 1656.34 321.84C1659.03 315.024 1660.56 310.224 1662.31 303.217C1665.22 291.564 1667 277.011 1667 264.916C1667 246.659 1663.31 230.455 1656.25 217.592C1652.95 211.602 1648.23 205.42 1643.54 200.966C1634.22 192.077 1621.75 186.088 1607.08 183.438C1603.15 182.709 1598.26 182.152 1593.88 181.883C1591.9 181.768 1577.76 181.691 1558.96 181.672C1541.59 181.653 1517.49 181.576 1505.42 181.518L1483.46 181.403L1490.72 142.91C1494.71 121.734 1497.96 104.398 1497.93 104.379C1497.92 104.36 1466.38 104.283 1427.84 104.225C1389.3 104.168 1339.29 104.091 1316.73 104.033C1294.16 103.976 1275.68 103.995 1275.64 104.072ZM1397.39 107.489C1450.83 107.547 1494.59 107.643 1494.62 107.681C1494.65 107.72 1491.57 124.288 1487.76 144.504C1483.95 164.7 1480.83 181.307 1480.83 181.403C1480.83 181.48 1464.78 181.499 1445.16 181.442C1417.36 181.346 1409.46 181.384 1409.42 181.557C1409.39 181.691 1399.29 234.16 1386.97 298.168L1364.59 414.568H1329.1H1293.63L1293.75 413.934C1293.91 413.282 1337.23 182.958 1337.4 181.96L1337.5 181.345L1300.82 181.211L1264.11 181.077L1264.22 180.558C1264.37 179.771 1277.35 109.14 1277.52 108.104L1277.69 107.182L1288.94 107.297C1295.14 107.355 1343.94 107.432 1397.39 107.489ZM1592.59 185.147C1610.94 185.991 1625.39 190.618 1636.98 199.334C1643.62 204.326 1649.58 211.295 1653.87 219.051C1660.14 230.359 1663.46 243.184 1664.28 259.253C1664.77 268.794 1663.77 282.291 1661.75 293.426C1658.37 311.952 1651.56 329.212 1641.7 344.206C1639.52 347.527 1633.61 354.976 1630.86 357.875C1620.41 368.856 1607.9 377.4 1595.13 382.295C1586.7 385.521 1578.91 387.306 1567.92 388.496C1566.61 388.631 1557.46 388.727 1540.81 388.784L1515.67 388.861L1506.04 440.985C1500.74 469.648 1496.38 493.166 1496.34 493.243C1496.28 493.32 1480.13 493.339 1460.44 493.32C1427.14 493.243 1424.65 493.224 1424.71 492.936C1424.75 492.744 1437.84 423.457 1453.8 338.926C1469.76 254.396 1482.85 185.147 1482.88 185.032C1482.94 184.782 1586.63 184.878 1592.59 185.147Z" fill="#363A3A" stroke="black" stroke-width="0.1"/>
<path opacity="0.2" d="M15.6386 544.74C15.4715 545.143 0.924372 624.874 1.0003 624.99C1.06104 625.047 17.5519 625.162 37.6719 625.22L74.2373 625.335L52.3254 741.85C40.2685 805.935 30.4287 858.385 30.4439 858.423C30.4743 858.442 47.6029 858.5 68.5125 858.519L106.551 858.577L106.672 858.097C106.733 857.847 116.801 805.531 129.04 741.87C141.279 678.188 151.331 625.95 151.377 625.758C151.453 625.45 153.229 625.431 185.847 625.431C204.752 625.431 220.225 625.489 220.225 625.546C220.225 625.623 206.999 695.678 190.842 781.226C174.686 866.774 161.46 936.849 161.46 936.964C161.46 937.194 238.143 937.482 238.326 937.252C238.402 937.156 242.76 913.772 248.029 885.263C253.283 856.772 257.626 833.292 257.671 833.12C257.747 832.812 259.357 832.793 282.074 832.716C298.458 832.659 307.022 832.563 308.298 832.428C316.832 831.449 321.706 830.547 327.735 828.819C344.438 824.039 359.669 814.593 372.53 801.039C375.294 798.121 381.353 790.499 383.615 787.082C388.641 779.537 392.802 771.473 396.34 762.508C399.028 755.692 400.562 750.893 402.308 743.885C405.223 732.232 407 717.68 407 705.585C407 687.327 403.31 671.123 396.249 658.26C392.954 652.27 388.231 646.089 383.539 641.635C374.216 632.746 361.749 626.756 347.08 624.106C343.147 623.377 338.258 622.82 333.885 622.551C331.895 622.436 317.758 622.359 298.959 622.34C281.588 622.321 257.489 622.244 245.417 622.187L223.46 622.071L230.718 583.579C234.712 562.403 237.961 545.067 237.931 545.047C237.916 545.028 206.377 544.951 167.837 544.894C129.298 544.836 79.2938 544.759 56.729 544.702C34.1642 544.644 15.6841 544.663 15.6386 544.74ZM137.391 548.157C190.827 548.215 234.59 548.311 234.621 548.349C234.651 548.388 231.568 564.956 227.757 585.172C223.946 605.369 220.833 621.975 220.833 622.071C220.833 622.148 204.782 622.167 185.163 622.11C157.36 622.014 149.463 622.052 149.418 622.225C149.388 622.359 139.29 674.829 126.975 738.836L104.592 855.236H69.1047H33.6327L33.7542 854.603C33.9061 853.95 77.2287 623.626 77.3957 622.628L77.502 622.014L40.8152 621.879L4.11321 621.745L4.2195 621.227C4.37135 620.439 17.3545 549.809 17.5215 548.772L17.6885 547.85L28.9406 547.966C35.136 548.023 83.9404 548.1 137.391 548.157ZM332.594 625.815C350.937 626.66 365.393 631.287 376.979 640.003C383.615 644.994 389.583 651.963 393.865 659.72C400.136 671.027 403.462 683.852 404.282 699.921C404.768 709.463 403.766 722.959 401.746 734.094C398.375 752.621 391.557 769.88 381.702 784.874C379.515 788.195 373.608 795.644 370.86 798.543C360.413 809.525 347.9 818.068 335.13 822.964C326.702 826.189 318.912 827.974 307.918 829.165C306.612 829.299 297.456 829.395 280.813 829.453L255.667 829.53L246.04 881.653C240.74 910.316 236.382 933.835 236.336 933.911C236.276 933.988 220.134 934.007 200.439 933.988C167.139 933.911 164.648 933.892 164.709 933.604C164.755 933.412 177.844 864.125 193.803 779.594C209.763 695.064 222.852 625.815 222.883 625.7C222.943 625.45 326.626 625.546 332.594 625.815Z" fill="#363A3A" stroke="black" stroke-width="0.1"/>
<path opacity="0.2" d="M435.639 544.74C435.472 545.143 420.924 624.874 421 624.99C421.061 625.047 437.552 625.162 457.672 625.22L494.237 625.335L472.325 741.85C460.269 805.935 450.429 858.385 450.444 858.423C450.474 858.442 467.603 858.5 488.513 858.519L526.551 858.577L526.672 858.097C526.733 857.847 536.801 805.531 549.04 741.87C561.279 678.188 571.331 625.95 571.377 625.758C571.453 625.45 573.229 625.431 605.847 625.431C624.752 625.431 640.225 625.489 640.225 625.546C640.225 625.623 626.999 695.678 610.842 781.226C594.686 866.774 581.46 936.849 581.46 936.964C581.46 937.194 658.143 937.482 658.326 937.252C658.402 937.156 662.76 913.772 668.029 885.263C673.283 856.772 677.626 833.292 677.671 833.12C677.747 832.812 679.357 832.793 702.074 832.716C718.458 832.659 727.022 832.563 728.298 832.428C736.832 831.449 741.706 830.547 747.735 828.819C764.438 824.039 779.669 814.593 792.53 801.039C795.294 798.121 801.353 790.499 803.615 787.082C808.641 779.537 812.802 771.473 816.34 762.508C819.028 755.692 820.562 750.893 822.308 743.885C825.223 732.232 827 717.68 827 705.585C827 687.327 823.31 671.123 816.249 658.26C812.954 652.27 808.231 646.089 803.539 641.635C794.216 632.746 781.749 626.756 767.08 624.106C763.147 623.377 758.258 622.82 753.885 622.551C751.895 622.436 737.758 622.359 718.959 622.34C701.588 622.321 677.489 622.244 665.417 622.187L643.46 622.071L650.718 583.579C654.712 562.403 657.961 545.067 657.931 545.047C657.916 545.028 626.377 544.951 587.837 544.894C549.298 544.836 499.294 544.759 476.729 544.702C454.164 544.644 435.684 544.663 435.639 544.74ZM557.391 548.157C610.827 548.215 654.59 548.311 654.621 548.349C654.651 548.388 651.568 564.956 647.757 585.172C643.946 605.369 640.833 621.975 640.833 622.071C640.833 622.148 624.782 622.167 605.163 622.11C577.36 622.014 569.463 622.052 569.418 622.225C569.388 622.359 559.29 674.829 546.975 738.836L524.592 855.236H489.105H453.633L453.754 854.603C453.906 853.95 497.229 623.626 497.396 622.628L497.502 622.014L460.815 621.879L424.113 621.745L424.22 621.227C424.371 620.439 437.354 549.809 437.522 548.772L437.689 547.85L448.941 547.966C455.136 548.023 503.94 548.1 557.391 548.157ZM752.594 625.815C770.937 626.66 785.393 631.287 796.979 640.003C803.615 644.994 809.583 651.963 813.865 659.72C820.136 671.027 823.462 683.852 824.282 699.921C824.768 709.463 823.766 722.959 821.746 734.094C818.375 752.621 811.557 769.88 801.702 784.874C799.515 788.195 793.608 795.644 790.86 798.543C780.413 809.525 767.9 818.068 755.13 822.964C746.702 826.189 738.912 827.974 727.918 829.165C726.612 829.299 717.456 829.395 700.813 829.453L675.667 829.53L666.04 881.653C660.74 910.316 656.382 933.835 656.336 933.911C656.276 933.988 640.134 934.007 620.439 933.988C587.139 933.911 584.648 933.892 584.709 933.604C584.755 933.412 597.844 864.125 613.803 779.594C629.763 695.064 642.852 625.815 642.883 625.7C642.943 625.45 746.626 625.546 752.594 625.815Z" fill="#363A3A" stroke="black" stroke-width="0.1"/>
<path opacity="0.2" d="M855.639 544.74C855.472 545.143 840.924 624.874 841 624.99C841.061 625.047 857.552 625.162 877.672 625.22L914.237 625.335L892.325 741.85C880.269 805.935 870.429 858.385 870.444 858.423C870.474 858.442 887.603 858.5 908.513 858.519L946.551 858.577L946.672 858.097C946.733 857.847 956.801 805.531 969.04 741.87C981.279 678.188 991.331 625.95 991.377 625.758C991.453 625.45 993.229 625.431 1025.85 625.431C1044.75 625.431 1060.23 625.489 1060.23 625.546C1060.23 625.623 1047 695.678 1030.84 781.226C1014.69 866.774 1001.46 936.849 1001.46 936.964C1001.46 937.194 1078.14 937.482 1078.33 937.252C1078.4 937.156 1082.76 913.772 1088.03 885.263C1093.28 856.772 1097.63 833.292 1097.67 833.12C1097.75 832.812 1099.36 832.793 1122.07 832.716C1138.46 832.659 1147.02 832.563 1148.3 832.428C1156.83 831.449 1161.71 830.547 1167.73 828.819C1184.44 824.039 1199.67 814.593 1212.53 801.039C1215.29 798.121 1221.35 790.499 1223.62 787.082C1228.64 779.537 1232.8 771.473 1236.34 762.508C1239.03 755.692 1240.56 750.893 1242.31 743.885C1245.22 732.232 1247 717.68 1247 705.585C1247 687.327 1243.31 671.123 1236.25 658.26C1232.95 652.27 1228.23 646.089 1223.54 641.635C1214.22 632.746 1201.75 626.756 1187.08 624.106C1183.15 623.377 1178.26 622.82 1173.88 622.551C1171.9 622.436 1157.76 622.359 1138.96 622.34C1121.59 622.321 1097.49 622.244 1085.42 622.187L1063.46 622.071L1070.72 583.579C1074.71 562.403 1077.96 545.067 1077.93 545.047C1077.92 545.028 1046.38 544.951 1007.84 544.894C969.298 544.836 919.294 544.759 896.729 544.702C874.164 544.644 855.684 544.663 855.639 544.74ZM977.391 548.157C1030.83 548.215 1074.59 548.311 1074.62 548.349C1074.65 548.388 1071.57 564.956 1067.76 585.172C1063.95 605.369 1060.83 621.975 1060.83 622.071C1060.83 622.148 1044.78 622.167 1025.16 622.11C997.36 622.014 989.463 622.052 989.418 622.225C989.388 622.359 979.29 674.829 966.975 738.836L944.592 855.236H909.105H873.633L873.754 854.603C873.906 853.95 917.229 623.626 917.396 622.628L917.502 622.014L880.815 621.879L844.113 621.745L844.22 621.227C844.371 620.439 857.354 549.809 857.522 548.772L857.689 547.85L868.941 547.966C875.136 548.023 923.94 548.1 977.391 548.157ZM1172.59 625.815C1190.94 626.66 1205.39 631.287 1216.98 640.003C1223.62 644.994 1229.58 651.963 1233.87 659.72C1240.14 671.027 1243.46 683.852 1244.28 699.921C1244.77 709.463 1243.77 722.959 1241.75 734.094C1238.37 752.621 1231.56 769.88 1221.7 784.874C1219.52 788.195 1213.61 795.644 1210.86 798.543C1200.41 809.525 1187.9 818.068 1175.13 822.964C1166.7 826.189 1158.91 827.974 1147.92 829.165C1146.61 829.299 1137.46 829.395 1120.81 829.453L1095.67 829.53L1086.04 881.653C1080.74 910.316 1076.38 933.835 1076.34 933.911C1076.28 933.988 1060.13 934.007 1040.44 933.988C1007.14 933.911 1004.65 933.892 1004.71 933.604C1004.75 933.412 1017.84 864.125 1033.8 779.594C1049.76 695.064 1062.85 625.815 1062.88 625.7C1062.94 625.45 1166.63 625.546 1172.59 625.815Z" fill="#363A3A" stroke="black" stroke-width="0.1"/>
<path opacity="0.2" d="M1275.64 544.74C1275.47 545.143 1260.92 624.874 1261 624.99C1261.06 625.047 1277.55 625.162 1297.67 625.22L1334.24 625.335L1312.33 741.85C1300.27 805.935 1290.43 858.385 1290.44 858.423C1290.47 858.442 1307.6 858.5 1328.51 858.519L1366.55 858.577L1366.67 858.097C1366.73 857.847 1376.8 805.531 1389.04 741.87C1401.28 678.188 1411.33 625.95 1411.38 625.758C1411.45 625.45 1413.23 625.431 1445.85 625.431C1464.75 625.431 1480.23 625.489 1480.23 625.546C1480.23 625.623 1467 695.678 1450.84 781.226C1434.69 866.774 1421.46 936.849 1421.46 936.964C1421.46 937.194 1498.14 937.482 1498.33 937.252C1498.4 937.156 1502.76 913.772 1508.03 885.263C1513.28 856.772 1517.63 833.292 1517.67 833.12C1517.75 832.812 1519.36 832.793 1542.07 832.716C1558.46 832.659 1567.02 832.563 1568.3 832.428C1576.83 831.449 1581.71 830.547 1587.73 828.819C1604.44 824.039 1619.67 814.593 1632.53 801.039C1635.29 798.121 1641.35 790.499 1643.62 787.082C1648.64 779.537 1652.8 771.473 1656.34 762.508C1659.03 755.692 1660.56 750.893 1662.31 743.885C1665.22 732.232 1667 717.68 1667 705.585C1667 687.327 1663.31 671.123 1656.25 658.26C1652.95 652.27 1648.23 646.089 1643.54 641.635C1634.22 632.746 1621.75 626.756 1607.08 624.106C1603.15 623.377 1598.26 622.82 1593.88 622.551C1591.9 622.436 1577.76 622.359 1558.96 622.34C1541.59 622.321 1517.49 622.244 1505.42 622.187L1483.46 622.071L1490.72 583.579C1494.71 562.403 1497.96 545.067 1497.93 545.047C1497.92 545.028 1466.38 544.951 1427.84 544.894C1389.3 544.836 1339.29 544.759 1316.73 544.702C1294.16 544.644 1275.68 544.663 1275.64 544.74ZM1397.39 548.157C1450.83 548.215 1494.59 548.311 1494.62 548.349C1494.65 548.388 1491.57 564.956 1487.76 585.172C1483.95 605.369 1480.83 621.975 1480.83 622.071C1480.83 622.148 1464.78 622.167 1445.16 622.11C1417.36 622.014 1409.46 622.052 1409.42 622.225C1409.39 622.359 1399.29 674.829 1386.97 738.836L1364.59 855.236H1329.1H1293.63L1293.75 854.603C1293.91 853.95 1337.23 623.626 1337.4 622.628L1337.5 622.014L1300.82 621.879L1264.11 621.745L1264.22 621.227C1264.37 620.439 1277.35 549.809 1277.52 548.772L1277.69 547.85L1288.94 547.966C1295.14 548.023 1343.94 548.1 1397.39 548.157ZM1592.59 625.815C1610.94 626.66 1625.39 631.287 1636.98 640.003C1643.62 644.994 1649.58 651.963 1653.87 659.72C1660.14 671.027 1663.46 683.852 1664.28 699.921C1664.77 709.463 1663.77 722.959 1661.75 734.094C1658.37 752.621 1651.56 769.88 1641.7 784.874C1639.52 788.195 1633.61 795.644 1630.86 798.543C1620.41 809.525 1607.9 818.068 1595.13 822.964C1586.7 826.189 1578.91 827.974 1567.92 829.165C1566.61 829.299 1557.46 829.395 1540.81 829.453L1515.67 829.53L1506.04 881.653C1500.74 910.316 1496.38 933.835 1496.34 933.911C1496.28 933.988 1480.13 934.007 1460.44 933.988C1427.14 933.911 1424.65 933.892 1424.71 933.604C1424.75 933.412 1437.84 864.125 1453.8 779.594C1469.76 695.064 1482.85 625.815 1482.88 625.7C1482.94 625.45 1586.63 625.546 1592.59 625.815Z" fill="#363A3A" stroke="black" stroke-width="0.1"/>
</g>
<defs>
<clipPath id="clip0_263_12152">
<rect width="1440" height="1024" fill="white"/>
</clipPath>
</defs>
</svg>
